<?xml version="1.0" standalone="no"?>
<!DOCTYPE svg PUBLIC "-//W3C//DTD SVG 20010904//EN"
 "http://www.w3.org/TR/2001/REC-SVG-20010904/DTD/svg10.dtd">
<svg version="1.0" xmlns="http://www.w3.org/2000/svg"
 width="192.000000pt" height="192.000000pt" viewBox="0 0 192.000000 192.000000"
 preserveAspectRatio="xMidYMid meet">

<g transform="translate(0.000000,192.000000) scale(0.100000,-0.100000)"
fill="#000000" stroke="none">
<path d="M127 1905 c-50 -17 -85 -50 -108 -100 -18 -38 -19 -83 -19 -835 0
-517 4 -808 10 -832 14 -50 55 -97 105 -119 38 -18 85 -19 845 -19 760 0 807
1 845 19 50 22 91 69 105 119 6 24 10 315 10 832 0 750 -1 797 -19 835 -22 50
-69 91 -119 105 -24 6 -313 10 -827 10 -643 -1 -797 -3 -828 -15z m218 -726
c9 -27 -19 -59 -36 -42 -15 15 -3 63 16 63 7 0 17 -10 20 -21z m1173 -9 c4
-23 -15 -43 -30 -34 -10 6 -11 48 -1 58 12 12 28 0 31 -24z m-1254 4 c19 -19
19 -17 4 -49 -6 -14 -23 -28 -37 -32 -38 -9 -51 -22 -51 -54 0 -42 35 -58 64
-30 11 12 25 38 31 59 17 59 40 49 38 -16 -3 -63 12 -66 39 -9 21 43 39 54 98
58 l45 4 0 -40 c0 -22 -4 -51 -8 -65 l-8 -25 25 28 c14 15 26 37 26 47 0 24
38 128 50 135 5 3 14 -4 20 -15 8 -15 7 -27 -5 -50 -15 -29 -15 -29 7 -22 51
18 75 -8 59 -66 -12 -39 2 -42 26 -6 12 19 14 30 6 43 -8 13 -4 24 17 50 29
34 56 34 45 0 -4 -13 -2 -19 9 -19 9 0 16 -4 16 -10 0 -5 -9 -10 -20 -10 -17
0 -20 -7 -20 -40 0 -42 9 -50 30 -25 16 19 30 19 30 1 0 -19 -48 -56 -72 -56
-10 0 -21 6 -24 14 -5 12 -10 12 -33 -2 -16 -9 -35 -12 -46 -9 -15 6 -17 15
-11 57 4 30 3 50 -3 50 -16 0 -41 -43 -41 -70 0 -33 -19 -53 -36 -39 -17 14
-60 -15 -80 -52 -12 -23 -21 -29 -49 -29 -25 0 -37 6 -46 21 -13 26 -3 38 43
49 l33 8 -31 1 c-16 1 -35 6 -42 13 -9 9 -15 9 -24 0 -17 -17 -58 -15 -65 3
-5 14 -8 14 -24 -1 -13 -12 -29 -15 -54 -11 -20 3 -47 1 -60 -5 -19 -8 -28 -8
-40 2 -23 19 -15 53 15 60 18 4 26 13 28 34 2 16 -1 33 -7 39 -14 14 -14 27 0
27 6 0 25 16 43 35 36 38 65 44 90 19z m770 0 c20 -20 20 -48 1 -64 -14 -12
-14 -15 0 -30 16 -17 20 -67 7 -86 -12 -18 -49 -34 -78 -34 -52 0 -78 45 -54
91 18 32 40 23 40 -17 0 -31 3 -35 22 -32 34 5 33 34 -1 74 -36 40 -39 66 -11
94 24 24 53 26 74 4z m107 -36 c1 -7 1 -18 0 -25 -1 -6 6 -14 16 -16 16 -4 15
-6 -4 -12 -15 -5 -25 -18 -29 -42 -3 -18 -4 -37 -1 -40 12 -12 37 7 50 39 18
43 33 54 84 61 53 6 63 -4 50 -53 -13 -48 -4 -60 24 -34 16 14 20 27 16 51 -3
18 -1 33 4 33 5 0 15 11 21 25 14 32 38 32 38 1 0 -15 7 -26 18 -29 15 -3 15
-5 -3 -12 -27 -11 -35 -25 -35 -57 0 -18 5 -28 14 -28 18 0 46 38 46 60 0 9 7
25 15 36 22 28 36 1 28 -55 -8 -56 8 -52 39 9 16 31 31 46 50 51 35 9 68 1 68
-17 0 -8 5 -14 10 -14 6 0 10 -11 10 -25 0 -38 14 -30 30 18 l15 42 50 -4 c28
-2 53 -8 58 -15 4 -6 4 -29 1 -51 l-6 -40 21 19 c28 25 38 14 17 -19 -16 -25
-61 -43 -74 -31 -3 4 -5 29 -4 56 1 28 -2 50 -8 50 -15 0 -34 -42 -32 -72 3
-36 -34 -60 -46 -29 -7 18 -10 18 -47 5 -47 -16 -87 -18 -101 -4 -6 6 -21 6
-43 -3 -28 -10 -34 -10 -45 4 -10 15 -14 15 -31 3 -26 -19 -61 -18 -69 2 -6
16 -8 16 -24 0 -21 -19 -43 -21 -59 -5 -8 8 -13 8 -17 0 -9 -14 -59 -14 -73 0
-8 8 -17 8 -31 0 -34 -18 -61 -13 -66 12 -11 50 -13 117 -5 117 5 0 15 11 21
25 12 26 37 34 39 13z"/>
<path d="M212 1148 c-7 -7 -12 -16 -12 -20 0 -12 28 -10 36 3 10 17 -10 31
-24 17z"/>
<path d="M422 1064 c-22 -15 -32 -74 -12 -74 11 0 35 36 45 68 8 26 -2 28 -33
6z"/>
<path d="M395 910 c4 -6 11 -8 16 -5 14 9 11 15 -7 15 -8 0 -12 -5 -9 -10z"/>
<path d="M984 1149 c-10 -17 13 -36 27 -22 12 12 4 33 -11 33 -5 0 -12 -5 -16
-11z"/>
<path d="M1238 1063 c-22 -26 -27 -48 -17 -64 8 -11 13 -10 29 10 20 23 28 71
12 71 -5 0 -16 -8 -24 -17z"/>
<path d="M1583 1054 c-17 -27 -11 -53 16 -62 9 -3 11 5 6 31 -6 28 -3 37 12
46 16 9 16 10 1 11 -10 0 -25 -12 -35 -26z"/>
</g>
</svg>
